<?xml version="1.0" encoding="UTF-8"?> <svg xmlns="http://www.w3.org/2000/svg" width="255" height="213" viewBox="0 0 255 213" fill="none"> <path d="M219.32 10.0258C208.638 3.49208 196.256 0.0156717 183.611 1.4714e-05C172.68 0.109965 161.928 2.68924 152.216 7.53106C142.504 12.3729 134.101 19.3428 127.681 27.8825C121.271 19.3325 112.871 12.355 103.156 7.51205C93.4419 2.66908 82.6848 0.095958 71.7515 1.4714e-05C59.0446 -0.00825405 46.5968 3.46871 35.8583 10.0258C1.56298 30.6707 -10.1761 76.4097 9.61438 112.123C25.7786 141.311 93.939 191.974 118.585 209.652C121.161 211.501 124.286 212.5 127.497 212.5C130.707 212.5 133.832 211.501 136.409 209.652C160.993 191.855 229.215 141.311 245.379 112.123C265.169 76.3504 253.43 30.6114 219.32 10.0258ZM235.361 106.902C223.069 128.734 172.855 169.668 129.709 200.694C129.122 201.114 128.412 201.343 127.681 201.347C126.969 201.343 126.278 201.113 125.714 200.694C82.6916 169.668 32.1706 128.734 20.0628 106.902C3.09951 76.2317 13.0562 37.0778 42.1887 19.5178C51.0384 14.1224 61.2844 11.2439 71.7515 11.2124C80.8843 11.2895 89.8693 13.4464 97.9753 17.508C106.081 21.5696 113.08 27.4211 118.4 34.5862L127.681 46.4511L136.962 34.5862C142.283 27.4211 149.281 21.5696 157.387 17.508C165.493 13.4464 174.478 11.2895 183.611 11.2124C194.078 11.2439 204.324 14.1224 213.173 19.5178C242.183 37.0184 252.14 76.1725 235.176 106.843L235.361 106.902Z" fill="black"></path> </svg> 